PathFileType	4	(X/Y/Z)	18_coords_data.trc
DataRate	CameraRate	NumFrames	NumMarkers	Units	OrigDataRate	OrigDataStartFrame	OrigNumFrames
30.0	30.0	4	21	m	30.0	1	66
Frame#	Time	THUMB_TIP	THUMB_IP	THUMB_MCP	THUMB_CMC	INDEX_TIP	INDEX_DIP	INDEX_PIP	INDEX_MCP	MIDDLE_TIP	MIDDLE_DIP	MIDDLE_PIP	MIDDLE_MCP	RING_TIP	RING_DIP	RING_PIP	RING_MCP	PINKY_TIP	PINKY_DIP	PINKY_PIP	PINKY_MCP	WRIST
X1	Y1	Z1	X2	Y2	Z2	X3	Y3	Z3	X4	Y4	Z4	X5	Y5	Z5	X6	Y6	Z6	X7	Y7	Z7	X8	Y8	Z8	X9	Y9	Z9	X10	Y10	Z10	X11	Y11	Z11	X12	Y12	Z12	X13	Y13	Z13	X14	Y14	Z14	X15	Y15	Z15	X16	Y16	Z16	X17	Y17	Z17	X18	Y18	Z18	X19	Y19	Z19	X20	Y20	Z20	X21	Y21	Z21
0	0.0	0.010998700141906738	-0.043973899841308596	0.9410029907226563	0.005706940174102783	-0.02414579963684082	0.9573660278320313	-0.009092309951782226	-0.009795669555664063	0.9784630126953126	-0.016253599166870115	0.01938960075378418	0.995791015625	0.023533199310302736	0.01678219985961914	0.8641530151367187	0.010626799583435058	0.016169200897216796	0.8818060302734375	-0.0009937940239906312	0.015868800163269043	0.90164697265625	-0.00967924976348877	0.017286800384521486	0.93747900390625	0.02592880058288574	0.06126219940185547	0.854218994140625	0.0147923002243042	0.0554744987487793	0.8749539794921875	0.001874199986457824	0.048927101135253906	0.898968017578125	-0.010403900146484376	0.04085120010375977	0.9356729736328125	0.036032100677490235	0.07970469665527344	0.875802978515625	0.02260610008239746	0.07505460357666016	0.8941680297851563	0.008526749610900879	0.069529296875	0.9145029907226563	-0.005425399780273438	0.05964540100097656	0.9439229736328125	0.042950801849365235	0.10591300201416015	0.926010986328125	0.029525800704956053	0.09698770141601562	0.935968994140625	0.01743869972229004	0.0883936996459961	0.94460498046875	0.00047888699173927304	0.07390850067138671	0.9579030151367187	-0.03879629898071289	0.044187301635742186	1.0099600219726563
1	0.03333333333333333	0.011579299926757812	-0.04404349899291992	0.9412059936523437	0.006266300201416016	-0.02425309944152832	0.9577459716796874	-0.008692580223083496	-0.009960780143737793	0.978802001953125	-0.015686800003051758	0.019118499755859376	0.995989013671875	0.024205299377441408	0.01642690086364746	0.8646339721679688	0.011195300102233886	0.01581630039215088	0.8821400146484375	-0.000596027016639709	0.015509499549865722	0.9018889770507813	-0.00936334991455078	0.017020900726318358	0.9377830200195313	0.026769100189208986	0.06075040054321289	0.8546370239257812	0.015449399948120118	0.05505440139770508	0.8752860107421875	0.0023463599681854247	0.04853820037841797	0.8992210083007812	-0.010146400451660157	0.04051110076904297	0.9358889770507812	0.03693579864501953	0.07919029998779296	0.8763679809570313	0.02322330093383789	0.07462920379638673	0.8945750122070313	0.008976659774780273	0.06919080352783204	0.9147620239257812	-0.005142330169677734	0.05936100006103515	0.9441129760742187	0.0434093017578125	0.10557599639892579	0.9263060302734375	0.029922399520874023	0.09661479949951172	0.9361859741210937	0.01774780082702637	0.08803630065917968	0.9447979736328125	0.000896381020545959	0.07359839630126953	0.9579910278320313	-0.038412200927734376	0.04390019989013672	1.0101699829101562
2	0.06666666666666667	0.011929599761962891	-0.04424750137329102	0.9415440063476562	0.006559740066528321	-0.024508699417114258	0.9579329833984375	-0.008447890281677245	-0.010238900184631347	0.9789359741210938	-0.015488100051879884	0.01883169937133789	0.996166015625	0.02489259910583496	0.01624329948425293	0.8650440063476562	0.011681400299072265	0.015579799652099609	0.8824669799804687	-0.00025186899304389905	0.015204299926757812	0.9020819702148437	-0.009093899726867676	0.01677000045776367	0.9379340209960938	0.027592899322509766	0.06052109909057617	0.855156982421875	0.016057100296020508	0.054807300567626956	0.8757169799804687	0.002748939990997314	0.04830149841308594	0.8995419921875	-0.009947319984436036	0.04025439834594727	0.9361950073242188	0.03761299896240235	0.0788644027709961	0.876905029296875	0.02372100067138672	0.07432170104980469	0.8949550170898437	0.009304590225219726	0.06894400024414063	0.9150070190429688	-0.0050357098579406736	0.05911600112915039	0.9443099975585938	0.04372700119018555	0.10521499633789062	0.9267139892578125	0.03022800064086914	0.09630269622802734	0.9365850219726563	0.01797330093383789	0.08777100372314453	0.9450549926757813	0.001014879941940307	0.07336750030517578	0.958239990234375	-0.038395198822021484	0.04365169906616211	1.01022998046875
3	0.1	0.011787799835205079	-0.044552398681640626	0.9415460205078126	0.006499800205230713	-0.024809099197387694	0.9581199951171875	-0.008440810203552246	-0.010526700019836426	0.9791680297851563	-0.01555799961090088	0.018555000305175783	0.9963889770507812	0.025353799819946288	0.015873200416564943	0.8654530029296875	0.012040900230407716	0.015254599571228027	0.8827509765625	0.000122276999056339	0.014985899925231933	0.9025050048828125	-0.009060190200805665	0.016378700256347658	0.93822900390625	0.02861669921875	0.06011700057983398	0.8558369750976562	0.016864099502563477	0.054440399169921876	0.876302978515625	0.003291589975357055	0.04798089981079102	0.8999180297851562	-0.009875499725341796	0.03994540023803711	0.93639697265625	0.03863949966430664	0.07820780181884765	0.8776699829101563	0.024549800872802733	0.07377030181884765	0.8955989990234375	0.009799460411071777	0.06855329895019531	0.9154199829101562	-0.004917749881744385	0.05883359909057617	0.9445770263671875	0.04427009963989258	0.10455699920654297	0.9271370239257812	0.030629199981689455	0.09582009887695313	0.93672802734375	0.018304500579833984	0.08733899688720703	0.9454149780273438	0.001226840019226074	0.07304360198974609	0.9585590209960938	-0.038316898345947266	0.043347000122070316	1.0106300048828125
